%TF.GenerationSoftware,KiCad,Pcbnew,8.0.4*%
%TF.CreationDate,2024-10-01T01:31:56-04:00*%
%TF.ProjectId,st7735_and_encoder,73743737-3335-45f6-916e-645f656e636f,rev?*%
%TF.SameCoordinates,Original*%
%TF.FileFunction,Copper,L1,Top*%
%TF.FilePolarity,Positive*%
%FSLAX46Y46*%
G04 Gerber Fmt 4.6, Leading zero omitted, Abs format (unit mm)*
G04 Created by KiCad (PCBNEW 8.0.4) date 2024-10-01 01:31:56*
%MOMM*%
%LPD*%
G01*
G04 APERTURE LIST*
%TA.AperFunction,SMDPad,CuDef*%
%ADD10R,3.500000X1.750000*%
%TD*%
%TA.AperFunction,ComponentPad*%
%ADD11C,2.500000*%
%TD*%
%TA.AperFunction,ComponentPad*%
%ADD12R,1.524000X1.524000*%
%TD*%
%TA.AperFunction,ComponentPad*%
%ADD13C,1.524000*%
%TD*%
%TA.AperFunction,ViaPad*%
%ADD14C,3.500000*%
%TD*%
%TA.AperFunction,ViaPad*%
%ADD15C,0.600000*%
%TD*%
%TA.AperFunction,Conductor*%
%ADD16C,0.200000*%
%TD*%
G04 APERTURE END LIST*
D10*
%TO.P,PMOD_B1,6,VCC*%
%TO.N,VCC*%
X125000000Y-62700000D03*
%TO.P,PMOD_B1,5,GND*%
%TO.N,GND*%
X125000000Y-60203294D03*
%TO.P,PMOD_B1,4,P4*%
%TO.N,DC*%
X125000000Y-57620000D03*
%TO.P,PMOD_B1,3,P3*%
%TO.N,RST*%
X125000000Y-55080000D03*
%TO.P,PMOD_B1,2,P2*%
%TO.N,MOSI*%
X125000000Y-52540000D03*
%TO.P,PMOD_B1,1,P1*%
%TO.N,SCLK*%
X125000000Y-50000000D03*
%TD*%
D11*
%TO.P,U1_ST7735,*%
%TO.N,*%
X136000000Y-66000000D03*
X177640000Y-66000000D03*
X136000000Y-41000000D03*
X177640000Y-41000000D03*
D12*
%TO.P,U1_ST7735,1,GND*%
%TO.N,GND*%
X135500000Y-62390000D03*
D13*
%TO.P,U1_ST7735,2,VCC*%
%TO.N,VCC*%
X135500000Y-59850000D03*
%TO.P,U1_ST7735,3,SCL*%
%TO.N,SCLK*%
X135500000Y-57310000D03*
%TO.P,U1_ST7735,4,SDA*%
%TO.N,MOSI*%
X135500000Y-54770000D03*
%TO.P,U1_ST7735,5,RES*%
%TO.N,RST*%
X135500000Y-52230000D03*
%TO.P,U1_ST7735,6,DC*%
%TO.N,DC*%
X135500000Y-49690000D03*
%TO.P,U1_ST7735,7,CS*%
%TO.N,CS*%
X135500000Y-47150000D03*
%TO.P,U1_ST7735,8,BL*%
%TO.N,BL*%
X135500000Y-44610000D03*
%TD*%
D14*
%TO.N,*%
X127000000Y-42000000D03*
D15*
%TO.N,VCC*%
X124750000Y-72750000D03*
%TD*%
D16*
%TO.N,DC*%
X137000000Y-51190000D02*
X135500000Y-49690000D01*
X137000000Y-54771895D02*
X137000000Y-51190000D01*
X127495000Y-56000000D02*
X135771895Y-56000000D01*
X125875000Y-57620000D02*
X127495000Y-56000000D01*
X135771895Y-56000000D02*
X137000000Y-54771895D01*
X125000000Y-57620000D02*
X125875000Y-57620000D01*
%TO.N,SCLK*%
X138000000Y-49000000D02*
X138000000Y-57000000D01*
X138000000Y-57000000D02*
X137690000Y-57310000D01*
X126372000Y-48628000D02*
X137628000Y-48628000D01*
X125000000Y-50000000D02*
X126372000Y-48628000D01*
X137628000Y-48628000D02*
X138000000Y-49000000D01*
X137690000Y-57310000D02*
X135500000Y-57310000D01*
%TO.N,MOSI*%
X136600000Y-51828105D02*
X136600000Y-53670000D01*
X135771895Y-51000000D02*
X136600000Y-51828105D01*
X125875000Y-52540000D02*
X127415000Y-51000000D01*
X136600000Y-53670000D02*
X135500000Y-54770000D01*
X125000000Y-52540000D02*
X125875000Y-52540000D01*
X127415000Y-51000000D02*
X135771895Y-51000000D01*
%TO.N,RST*%
X132650000Y-55080000D02*
X135500000Y-52230000D01*
X125000000Y-55080000D02*
X132650000Y-55080000D01*
%TO.N,DC*%
X125875000Y-57620000D02*
X126627000Y-58372000D01*
%TO.N,GND*%
X137000000Y-60890000D02*
X135500000Y-62390000D01*
X127290294Y-58788000D02*
X135939895Y-58788000D01*
X135939895Y-58788000D02*
X137000000Y-59848105D01*
X125875000Y-60203294D02*
X127290294Y-58788000D01*
X125000000Y-60203294D02*
X125875000Y-60203294D01*
X137000000Y-59848105D02*
X137000000Y-60890000D01*
%TO.N,VCC*%
X132650000Y-62700000D02*
X135500000Y-59850000D01*
X125000000Y-62700000D02*
X132650000Y-62700000D01*
%TO.N,MOSI*%
X124750000Y-52496706D02*
X125625000Y-52496706D01*
%TD*%
%TA.AperFunction,Conductor*%
%TO.N,GND*%
G36*
X139442539Y-36520185D02*
G01*
X139488294Y-36572989D01*
X139499500Y-36624500D01*
X139499500Y-70375500D01*
X139479815Y-70442539D01*
X139427011Y-70488294D01*
X139375500Y-70499500D01*
X123624500Y-70499500D01*
X123557461Y-70479815D01*
X123511706Y-70427011D01*
X123500500Y-70375500D01*
X123500500Y-65999994D01*
X134544529Y-65999994D01*
X134544529Y-66000005D01*
X134564379Y-66239559D01*
X134623389Y-66472589D01*
X134719951Y-66692729D01*
X134851427Y-66893966D01*
X134851429Y-66893969D01*
X135014236Y-67070825D01*
X135014239Y-67070827D01*
X135014242Y-67070830D01*
X135203924Y-67218466D01*
X135203930Y-67218470D01*
X135203933Y-67218472D01*
X135415344Y-67332882D01*
X135415347Y-67332883D01*
X135642699Y-67410933D01*
X135642701Y-67410933D01*
X135642703Y-67410934D01*
X135879808Y-67450500D01*
X135879809Y-67450500D01*
X136120191Y-67450500D01*
X136120192Y-67450500D01*
X136357297Y-67410934D01*
X136584656Y-67332882D01*
X136796067Y-67218472D01*
X136985764Y-67070825D01*
X137148571Y-66893969D01*
X137280049Y-66692728D01*
X137376610Y-66472591D01*
X137435620Y-66239563D01*
X137455471Y-66000000D01*
X137435620Y-65760437D01*
X137376610Y-65527409D01*
X137280049Y-65307272D01*
X137148571Y-65106031D01*
X136985764Y-64929175D01*
X136985759Y-64929171D01*
X136985757Y-64929169D01*
X136796075Y-64781533D01*
X136796069Y-64781529D01*
X136584657Y-64667118D01*
X136584652Y-64667116D01*
X136357300Y-64589066D01*
X136179468Y-64559391D01*
X136120192Y-64549500D01*
X135879808Y-64549500D01*
X135832387Y-64557413D01*
X135642699Y-64589066D01*
X135415347Y-64667116D01*
X135415342Y-64667118D01*
X135203930Y-64781529D01*
X135203924Y-64781533D01*
X135014242Y-64929169D01*
X135014239Y-64929172D01*
X134851430Y-65106029D01*
X134851427Y-65106033D01*
X134719951Y-65307270D01*
X134623389Y-65527410D01*
X134564379Y-65760440D01*
X134544529Y-65999994D01*
X123500500Y-65999994D01*
X123500500Y-63899500D01*
X123520185Y-63832461D01*
X123572989Y-63786706D01*
X123624500Y-63775500D01*
X126769750Y-63775500D01*
X126769751Y-63775499D01*
X126784568Y-63772552D01*
X126828229Y-63763868D01*
X126828229Y-63763867D01*
X126828231Y-63763867D01*
X126894552Y-63719552D01*
X126938867Y-63653231D01*
X126938867Y-63653229D01*
X126938868Y-63653229D01*
X126950499Y-63594752D01*
X126950500Y-63594750D01*
X126950500Y-63124500D01*
X126970185Y-63057461D01*
X127022989Y-63011706D01*
X127074500Y-63000500D01*
X132689560Y-63000500D01*
X132689562Y-63000500D01*
X132765989Y-62980021D01*
X132834511Y-62940460D01*
X132890460Y-62884511D01*
X134026320Y-61748650D01*
X134087642Y-61715166D01*
X134157334Y-61720150D01*
X134213267Y-61762022D01*
X134237684Y-61827486D01*
X134238000Y-61836332D01*
X134238000Y-62140000D01*
X135211184Y-62140000D01*
X135195124Y-62156060D01*
X135144964Y-62242939D01*
X135119000Y-62339840D01*
X135119000Y-62440160D01*
X135144964Y-62537061D01*
X135195124Y-62623940D01*
X135211184Y-62640000D01*
X134238000Y-62640000D01*
X134238000Y-63199844D01*
X134244401Y-63259372D01*
X134244403Y-63259379D01*
X134294645Y-63394086D01*
X134294649Y-63394093D01*
X134380809Y-63509187D01*
X134380812Y-63509190D01*
X134495906Y-63595350D01*
X134495913Y-63595354D01*
X134630620Y-63645596D01*
X134630627Y-63645598D01*
X134690155Y-63651999D01*
X134690172Y-63652000D01*
X135250000Y-63652000D01*
X135250000Y-62678816D01*
X135266060Y-62694876D01*
X135352939Y-62745036D01*
X135449840Y-62771000D01*
X135550160Y-62771000D01*
X135647061Y-62745036D01*
X135733940Y-62694876D01*
X135750000Y-62678816D01*
X135750000Y-63652000D01*
X136309828Y-63652000D01*
X136309844Y-63651999D01*
X136369372Y-63645598D01*
X136369379Y-63645596D01*
X136504086Y-63595354D01*
X136504093Y-63595350D01*
X136619187Y-63509190D01*
X136619190Y-63509187D01*
X136705350Y-63394093D01*
X136705354Y-63394086D01*
X136755596Y-63259379D01*
X136755598Y-63259372D01*
X136761999Y-63199844D01*
X136762000Y-63199827D01*
X136762000Y-62640000D01*
X135788816Y-62640000D01*
X135804876Y-62623940D01*
X135855036Y-62537061D01*
X135881000Y-62440160D01*
X135881000Y-62339840D01*
X135855036Y-62242939D01*
X135804876Y-62156060D01*
X135788816Y-62140000D01*
X136762000Y-62140000D01*
X136762000Y-61580172D01*
X136761999Y-61580155D01*
X136755598Y-61520627D01*
X136755596Y-61520620D01*
X136705354Y-61385913D01*
X136705350Y-61385906D01*
X136619190Y-61270812D01*
X136619187Y-61270809D01*
X136504093Y-61184649D01*
X136504086Y-61184645D01*
X136369379Y-61134403D01*
X136369372Y-61134401D01*
X136309844Y-61128000D01*
X135750000Y-61128000D01*
X135750000Y-62101184D01*
X135733940Y-62085124D01*
X135647061Y-62034964D01*
X135550160Y-62009000D01*
X135449840Y-62009000D01*
X135352939Y-62034964D01*
X135266060Y-62085124D01*
X135250000Y-62101184D01*
X135250000Y-61128000D01*
X134946332Y-61128000D01*
X134879293Y-61108315D01*
X134833538Y-61055511D01*
X134823594Y-60986353D01*
X134852619Y-60922797D01*
X134858635Y-60916334D01*
X135001796Y-60773173D01*
X135063115Y-60739691D01*
X135125470Y-60742196D01*
X135129877Y-60743533D01*
X135129885Y-60743537D01*
X135311317Y-60798573D01*
X135500000Y-60817157D01*
X135688683Y-60798573D01*
X135870115Y-60743537D01*
X136037324Y-60654162D01*
X136183883Y-60533883D01*
X136304162Y-60387324D01*
X136393537Y-60220115D01*
X136448573Y-60038683D01*
X136467157Y-59850000D01*
X136448573Y-59661317D01*
X136393537Y-59479885D01*
X136304162Y-59312676D01*
X136304161Y-59312674D01*
X136183883Y-59166116D01*
X136037325Y-59045838D01*
X136037318Y-59045834D01*
X135870122Y-58956466D01*
X135870119Y-58956465D01*
X135870118Y-58956464D01*
X135870115Y-58956463D01*
X135688683Y-58901427D01*
X135688681Y-58901426D01*
X135688683Y-58901426D01*
X135500000Y-58882843D01*
X135311318Y-58901426D01*
X135204194Y-58933921D01*
X135129885Y-58956463D01*
X135129882Y-58956464D01*
X135129880Y-58956465D01*
X135129877Y-58956466D01*
X134962681Y-59045834D01*
X134962674Y-59045838D01*
X134816116Y-59166116D01*
X134695838Y-59312674D01*
X134695834Y-59312681D01*
X134606466Y-59479877D01*
X134606465Y-59479880D01*
X134551426Y-59661318D01*
X134532843Y-59850000D01*
X134551426Y-60038681D01*
X134607802Y-60224529D01*
X134608425Y-60294396D01*
X134576822Y-60348205D01*
X132561848Y-62363181D01*
X132500525Y-62396666D01*
X132474167Y-62399500D01*
X127074500Y-62399500D01*
X127007461Y-62379815D01*
X126961706Y-62327011D01*
X126950500Y-62275500D01*
X126950500Y-61805249D01*
X126950499Y-61805247D01*
X126938868Y-61746770D01*
X126938867Y-61746768D01*
X126916140Y-61712756D01*
X126895261Y-61646079D01*
X126913745Y-61578699D01*
X126965723Y-61532008D01*
X126975910Y-61527681D01*
X126992088Y-61521647D01*
X126992093Y-61521644D01*
X127107187Y-61435484D01*
X127107190Y-61435481D01*
X127193350Y-61320387D01*
X127193354Y-61320380D01*
X127243596Y-61185673D01*
X127243598Y-61185666D01*
X127249999Y-61126138D01*
X127250000Y-61126121D01*
X127250000Y-60453294D01*
X124874000Y-60453294D01*
X124806961Y-60433609D01*
X124761206Y-60380805D01*
X124750000Y-60329294D01*
X124750000Y-60077294D01*
X124769685Y-60010255D01*
X124822489Y-59964500D01*
X124874000Y-59953294D01*
X127250000Y-59953294D01*
X127250000Y-59280466D01*
X127249999Y-59280449D01*
X127243598Y-59220921D01*
X127243596Y-59220914D01*
X127193354Y-59086207D01*
X127193350Y-59086200D01*
X127107190Y-58971106D01*
X127107187Y-58971103D01*
X126992093Y-58884943D01*
X126992086Y-58884939D01*
X126920822Y-58858360D01*
X126864888Y-58816489D01*
X126840471Y-58751025D01*
X126855322Y-58682752D01*
X126886447Y-58648718D01*
X126885917Y-58648188D01*
X126894551Y-58639553D01*
X126894552Y-58639552D01*
X126938867Y-58573231D01*
X126938867Y-58573229D01*
X126938868Y-58573229D01*
X126950499Y-58514752D01*
X126950500Y-58514750D01*
X126950500Y-57020833D01*
X126970185Y-56953794D01*
X126986819Y-56933152D01*
X127583152Y-56336819D01*
X127644475Y-56303334D01*
X127670833Y-56300500D01*
X134866324Y-56300500D01*
X134933363Y-56320185D01*
X134979118Y-56372989D01*
X134989062Y-56442147D01*
X134960037Y-56505703D01*
X134944989Y-56520353D01*
X134816116Y-56626116D01*
X134695838Y-56772674D01*
X134695834Y-56772681D01*
X134606466Y-56939877D01*
X134606465Y-56939880D01*
X134606464Y-56939882D01*
X134606463Y-56939885D01*
X134585346Y-57009500D01*
X134551426Y-57121318D01*
X134532843Y-57310000D01*
X134551426Y-57498681D01*
X134567133Y-57550460D01*
X134606463Y-57680115D01*
X134606464Y-57680118D01*
X134606465Y-57680119D01*
X134606466Y-57680122D01*
X134695834Y-57847318D01*
X134695838Y-57847325D01*
X134816116Y-57993883D01*
X134962674Y-58114161D01*
X134962681Y-58114165D01*
X135129877Y-58203533D01*
X135129878Y-58203533D01*
X135129885Y-58203537D01*
X135311317Y-58258573D01*
X135311316Y-58258573D01*
X135328233Y-58260239D01*
X135500000Y-58277157D01*
X135688683Y-58258573D01*
X135870115Y-58203537D01*
X136037324Y-58114162D01*
X136183883Y-57993883D01*
X136304162Y-57847324D01*
X136327352Y-57803938D01*
X136395712Y-57676047D01*
X136444674Y-57626203D01*
X136505070Y-57610500D01*
X137729560Y-57610500D01*
X137729562Y-57610500D01*
X137805989Y-57590021D01*
X137874511Y-57550460D01*
X137930460Y-57494511D01*
X138240460Y-57184511D01*
X138280021Y-57115989D01*
X138300500Y-57039562D01*
X138300500Y-48960438D01*
X138280021Y-48884011D01*
X138261546Y-48852011D01*
X138240464Y-48815495D01*
X138240458Y-48815487D01*
X137812512Y-48387541D01*
X137812504Y-48387535D01*
X137743995Y-48347982D01*
X137743990Y-48347979D01*
X137718513Y-48341152D01*
X137667562Y-48327500D01*
X135769952Y-48327500D01*
X135702913Y-48307815D01*
X135657158Y-48255011D01*
X135647214Y-48185853D01*
X135676239Y-48122297D01*
X135733955Y-48084839D01*
X135870115Y-48043537D01*
X136037324Y-47954162D01*
X136183883Y-47833883D01*
X136304162Y-47687324D01*
X136393537Y-47520115D01*
X136448573Y-47338683D01*
X136467157Y-47150000D01*
X136448573Y-46961317D01*
X136393537Y-46779885D01*
X136304162Y-46612676D01*
X136304161Y-46612674D01*
X136183883Y-46466116D01*
X136037325Y-46345838D01*
X136037318Y-46345834D01*
X135870122Y-46256466D01*
X135870119Y-46256465D01*
X135870118Y-46256464D01*
X135870115Y-46256463D01*
X135688683Y-46201427D01*
X135688681Y-46201426D01*
X135688683Y-46201426D01*
X135500000Y-46182843D01*
X135311318Y-46201426D01*
X135204194Y-46233921D01*
X135129885Y-46256463D01*
X135129882Y-46256464D01*
X135129880Y-46256465D01*
X135129877Y-46256466D01*
X134962681Y-46345834D01*
X134962674Y-46345838D01*
X134816116Y-46466116D01*
X134695838Y-46612674D01*
X134695834Y-46612681D01*
X134606466Y-46779877D01*
X134606465Y-46779880D01*
X134551426Y-46961318D01*
X134532843Y-47150000D01*
X134551426Y-47338681D01*
X134551427Y-47338683D01*
X134606463Y-47520115D01*
X134606464Y-47520118D01*
X134606465Y-47520119D01*
X134606466Y-47520122D01*
X134695834Y-47687318D01*
X134695838Y-47687325D01*
X134816116Y-47833883D01*
X134962674Y-47954161D01*
X134962681Y-47954165D01*
X135129877Y-48043533D01*
X135129878Y-48043533D01*
X135129885Y-48043537D01*
X135266044Y-48084839D01*
X135324482Y-48123137D01*
X135352938Y-48186949D01*
X135342378Y-48256016D01*
X135296154Y-48308409D01*
X135230048Y-48327500D01*
X126332438Y-48327500D01*
X126294224Y-48337739D01*
X126256009Y-48347979D01*
X126256004Y-48347982D01*
X126187495Y-48387535D01*
X126187487Y-48387541D01*
X125686848Y-48888181D01*
X125625525Y-48921666D01*
X125599167Y-48924500D01*
X123624500Y-48924500D01*
X123557461Y-48904815D01*
X123511706Y-48852011D01*
X123500500Y-48800500D01*
X123500500Y-44610000D01*
X134532843Y-44610000D01*
X134551426Y-44798681D01*
X134551427Y-44798683D01*
X134606463Y-44980115D01*
X134606464Y-44980118D01*
X134606465Y-44980119D01*
X134606466Y-44980122D01*
X134695834Y-45147318D01*
X134695838Y-45147325D01*
X134816116Y-45293883D01*
X134962674Y-45414161D01*
X134962681Y-45414165D01*
X135129877Y-45503533D01*
X135129878Y-45503533D01*
X135129885Y-45503537D01*
X135311317Y-45558573D01*
X135311316Y-45558573D01*
X135328233Y-45560239D01*
X135500000Y-45577157D01*
X135688683Y-45558573D01*
X135870115Y-45503537D01*
X136037324Y-45414162D01*
X136183883Y-45293883D01*
X136304162Y-45147324D01*
X136393537Y-44980115D01*
X136448573Y-44798683D01*
X136467157Y-44610000D01*
X136448573Y-44421317D01*
X136393537Y-44239885D01*
X136304162Y-44072676D01*
X136304161Y-44072674D01*
X136183883Y-43926116D01*
X136037325Y-43805838D01*
X136037318Y-43805834D01*
X135870122Y-43716466D01*
X135870119Y-43716465D01*
X135870118Y-43716464D01*
X135870115Y-43716463D01*
X135688683Y-43661427D01*
X135688681Y-43661426D01*
X135688683Y-43661426D01*
X135500000Y-43642843D01*
X135311318Y-43661426D01*
X135204194Y-43693921D01*
X135129885Y-43716463D01*
X135129882Y-43716464D01*
X135129880Y-43716465D01*
X135129877Y-43716466D01*
X134962681Y-43805834D01*
X134962674Y-43805838D01*
X134816116Y-43926116D01*
X134695838Y-44072674D01*
X134695834Y-44072681D01*
X134606466Y-44239877D01*
X134606465Y-44239880D01*
X134551426Y-44421318D01*
X134532843Y-44610000D01*
X123500500Y-44610000D01*
X123500500Y-41999998D01*
X125044518Y-41999998D01*
X125044518Y-42000001D01*
X125064422Y-42278299D01*
X125101883Y-42450500D01*
X125123729Y-42550923D01*
X125184266Y-42713230D01*
X125221231Y-42812338D01*
X125221233Y-42812342D01*
X125354940Y-43057207D01*
X125354945Y-43057215D01*
X125522138Y-43280560D01*
X125522154Y-43280578D01*
X125719421Y-43477845D01*
X125719439Y-43477861D01*
X125942784Y-43645054D01*
X125942792Y-43645059D01*
X126187657Y-43778766D01*
X126187661Y-43778768D01*
X126187663Y-43778769D01*
X126449077Y-43876271D01*
X126585391Y-43905924D01*
X126721700Y-43935577D01*
X126721702Y-43935577D01*
X126721706Y-43935578D01*
X126969014Y-43953265D01*
X126999999Y-43955482D01*
X127000000Y-43955482D01*
X127000001Y-43955482D01*
X127027881Y-43953487D01*
X127278294Y-43935578D01*
X127550923Y-43876271D01*
X127812337Y-43778769D01*
X128057213Y-43645056D01*
X128280568Y-43477855D01*
X128477855Y-43280568D01*
X128645056Y-43057213D01*
X128778769Y-42812337D01*
X128876271Y-42550923D01*
X128935578Y-42278294D01*
X128955482Y-42000000D01*
X128935578Y-41721706D01*
X128929274Y-41692729D01*
X128881386Y-41472591D01*
X128876271Y-41449077D01*
X128778769Y-41187663D01*
X128676294Y-40999994D01*
X134544529Y-40999994D01*
X134544529Y-41000005D01*
X134564379Y-41239559D01*
X134623389Y-41472589D01*
X134719951Y-41692729D01*
X134738879Y-41721700D01*
X134851429Y-41893969D01*
X135014236Y-42070825D01*
X135014239Y-42070827D01*
X135014242Y-42070830D01*
X135203924Y-42218466D01*
X135203930Y-42218470D01*
X135203933Y-42218472D01*
X135415344Y-42332882D01*
X135415347Y-42332883D01*
X135642699Y-42410933D01*
X135642701Y-42410933D01*
X135642703Y-42410934D01*
X135879808Y-42450500D01*
X135879809Y-42450500D01*
X136120191Y-42450500D01*
X136120192Y-42450500D01*
X136357297Y-42410934D01*
X136584656Y-42332882D01*
X136796067Y-42218472D01*
X136985764Y-42070825D01*
X137148571Y-41893969D01*
X137280049Y-41692728D01*
X137376610Y-41472591D01*
X137435620Y-41239563D01*
X137455471Y-41000000D01*
X137435620Y-40760437D01*
X137376610Y-40527409D01*
X137280049Y-40307272D01*
X137148571Y-40106031D01*
X136985764Y-39929175D01*
X136985759Y-39929171D01*
X136985757Y-39929169D01*
X136796075Y-39781533D01*
X136796069Y-39781529D01*
X136584657Y-39667118D01*
X136584652Y-39667116D01*
X136357300Y-39589066D01*
X136179468Y-39559391D01*
X136120192Y-39549500D01*
X135879808Y-39549500D01*
X135832387Y-39557413D01*
X135642699Y-39589066D01*
X135415347Y-39667116D01*
X135415342Y-39667118D01*
X135203930Y-39781529D01*
X135203924Y-39781533D01*
X135014242Y-39929169D01*
X135014239Y-39929172D01*
X134851430Y-40106029D01*
X134851427Y-40106033D01*
X134719951Y-40307270D01*
X134623389Y-40527410D01*
X134564379Y-40760440D01*
X134544529Y-40999994D01*
X128676294Y-40999994D01*
X128645056Y-40942787D01*
X128645054Y-40942784D01*
X128477861Y-40719439D01*
X128477845Y-40719421D01*
X128280578Y-40522154D01*
X128280560Y-40522138D01*
X128057215Y-40354945D01*
X128057207Y-40354940D01*
X127812342Y-40221233D01*
X127812338Y-40221231D01*
X127713230Y-40184266D01*
X127550923Y-40123729D01*
X127550919Y-40123728D01*
X127550916Y-40123727D01*
X127278299Y-40064422D01*
X127000001Y-40044518D01*
X126999999Y-40044518D01*
X126721700Y-40064422D01*
X126449083Y-40123727D01*
X126449078Y-40123728D01*
X126449077Y-40123729D01*
X126385875Y-40147301D01*
X126187661Y-40221231D01*
X126187657Y-40221233D01*
X125942792Y-40354940D01*
X125942784Y-40354945D01*
X125719439Y-40522138D01*
X125719421Y-40522154D01*
X125522154Y-40719421D01*
X125522138Y-40719439D01*
X125354945Y-40942784D01*
X125354940Y-40942792D01*
X125221233Y-41187657D01*
X125221231Y-41187661D01*
X125123727Y-41449083D01*
X125064422Y-41721700D01*
X125044518Y-41999998D01*
X123500500Y-41999998D01*
X123500500Y-36624500D01*
X123520185Y-36557461D01*
X123572989Y-36511706D01*
X123624500Y-36500500D01*
X139375500Y-36500500D01*
X139442539Y-36520185D01*
G37*
%TD.AperFunction*%
%TD*%
M02*
