%TF.GenerationSoftware,KiCad,Pcbnew,8.0.4*%
%TF.CreationDate,2024-10-01T01:31:56-04:00*%
%TF.ProjectId,st7735_and_encoder,73743737-3335-45f6-916e-645f656e636f,rev?*%
%TF.SameCoordinates,Original*%
%TF.FileFunction,Copper,L2,Bot*%
%TF.FilePolarity,Positive*%
%FSLAX46Y46*%
G04 Gerber Fmt 4.6, Leading zero omitted, Abs format (unit mm)*
G04 Created by KiCad (PCBNEW 8.0.4) date 2024-10-01 01:31:56*
%MOMM*%
%LPD*%
G01*
G04 APERTURE LIST*
%TA.AperFunction,SMDPad,CuDef*%
%ADD10R,3.500000X1.750000*%
%TD*%
%TA.AperFunction,ComponentPad*%
%ADD11C,2.500000*%
%TD*%
%TA.AperFunction,ComponentPad*%
%ADD12R,1.524000X1.524000*%
%TD*%
%TA.AperFunction,ComponentPad*%
%ADD13C,1.524000*%
%TD*%
%TA.AperFunction,ViaPad*%
%ADD14C,3.500000*%
%TD*%
%TA.AperFunction,ViaPad*%
%ADD15C,0.600000*%
%TD*%
%TA.AperFunction,Conductor*%
%ADD16C,0.200000*%
%TD*%
G04 APERTURE END LIST*
D10*
%TO.P,PMOD_B1,12,VCC*%
%TO.N,VCC*%
X125000000Y-62700000D03*
%TO.P,PMOD_B1,11,GND*%
%TO.N,GND*%
X125000000Y-60160000D03*
%TO.P,PMOD_B1,10,P8*%
%TO.N,unconnected-(PMOD_B1-P8-Pad10)*%
X125000000Y-57620000D03*
%TO.P,PMOD_B1,9,P7*%
%TO.N,unconnected-(PMOD_B1-P7-Pad9)*%
X125000000Y-55080000D03*
%TO.P,PMOD_B1,8,P6*%
%TO.N,BL*%
X125000000Y-52496706D03*
%TO.P,PMOD_B1,7,P5*%
%TO.N,CS*%
X125000000Y-50000000D03*
%TD*%
D11*
%TO.P,U1_ST7735,*%
%TO.N,*%
X136000000Y-66000000D03*
X177640000Y-66000000D03*
X136000000Y-41000000D03*
X177640000Y-41000000D03*
D12*
%TO.P,U1_ST7735,1,GND*%
%TO.N,GND*%
X135500000Y-62390000D03*
D13*
%TO.P,U1_ST7735,2,VCC*%
%TO.N,VCC*%
X135500000Y-59850000D03*
%TO.P,U1_ST7735,3,SCL*%
%TO.N,SCLK*%
X135500000Y-57310000D03*
%TO.P,U1_ST7735,4,SDA*%
%TO.N,MOSI*%
X135500000Y-54770000D03*
%TO.P,U1_ST7735,5,RES*%
%TO.N,RST*%
X135500000Y-52230000D03*
%TO.P,U1_ST7735,6,DC*%
%TO.N,DC*%
X135500000Y-49690000D03*
%TO.P,U1_ST7735,7,CS*%
%TO.N,CS*%
X135500000Y-47150000D03*
%TO.P,U1_ST7735,8,BL*%
%TO.N,BL*%
X135500000Y-44610000D03*
%TD*%
D14*
%TO.N,*%
X127000000Y-42000000D03*
D15*
%TO.N,VCC*%
X124750000Y-72750000D03*
%TD*%
D16*
%TO.N,BL*%
X136562000Y-45672000D02*
X135500000Y-44610000D01*
X136562000Y-48438000D02*
X136562000Y-45672000D01*
X136372000Y-48628000D02*
X136562000Y-48438000D01*
X135060105Y-48628000D02*
X136372000Y-48628000D01*
X131191399Y-52496706D02*
X135060105Y-48628000D01*
X125000000Y-52496706D02*
X131191399Y-52496706D01*
%TO.N,CS*%
X132650000Y-50000000D02*
X135500000Y-47150000D01*
X125000000Y-50000000D02*
X132650000Y-50000000D01*
%TO.N,GND*%
X124750000Y-60203294D02*
X125625000Y-60203294D01*
%TO.N,VCC*%
X124750000Y-62700000D02*
X125625000Y-62700000D01*
%TO.N,CS*%
X124750000Y-50000000D02*
X126000000Y-50000000D01*
%TD*%
%TA.AperFunction,Conductor*%
%TO.N,GND*%
G36*
X139442539Y-36520185D02*
G01*
X139488294Y-36572989D01*
X139499500Y-36624500D01*
X139499500Y-70375500D01*
X139479815Y-70442539D01*
X139427011Y-70488294D01*
X139375500Y-70499500D01*
X123624500Y-70499500D01*
X123557461Y-70479815D01*
X123511706Y-70427011D01*
X123500500Y-70375500D01*
X123500500Y-65999994D01*
X134544529Y-65999994D01*
X134544529Y-66000005D01*
X134564379Y-66239559D01*
X134623389Y-66472589D01*
X134719951Y-66692729D01*
X134851427Y-66893966D01*
X134851429Y-66893969D01*
X135014236Y-67070825D01*
X135014239Y-67070827D01*
X135014242Y-67070830D01*
X135203924Y-67218466D01*
X135203930Y-67218470D01*
X135203933Y-67218472D01*
X135415344Y-67332882D01*
X135415347Y-67332883D01*
X135642699Y-67410933D01*
X135642701Y-67410933D01*
X135642703Y-67410934D01*
X135879808Y-67450500D01*
X135879809Y-67450500D01*
X136120191Y-67450500D01*
X136120192Y-67450500D01*
X136357297Y-67410934D01*
X136584656Y-67332882D01*
X136796067Y-67218472D01*
X136985764Y-67070825D01*
X137148571Y-66893969D01*
X137280049Y-66692728D01*
X137376610Y-66472591D01*
X137435620Y-66239563D01*
X137455471Y-66000000D01*
X137435620Y-65760437D01*
X137376610Y-65527409D01*
X137280049Y-65307272D01*
X137148571Y-65106031D01*
X136985764Y-64929175D01*
X136985759Y-64929171D01*
X136985757Y-64929169D01*
X136796075Y-64781533D01*
X136796069Y-64781529D01*
X136584657Y-64667118D01*
X136584652Y-64667116D01*
X136357300Y-64589066D01*
X136179468Y-64559391D01*
X136120192Y-64549500D01*
X135879808Y-64549500D01*
X135832387Y-64557413D01*
X135642699Y-64589066D01*
X135415347Y-64667116D01*
X135415342Y-64667118D01*
X135203930Y-64781529D01*
X135203924Y-64781533D01*
X135014242Y-64929169D01*
X135014239Y-64929172D01*
X134851430Y-65106029D01*
X134851427Y-65106033D01*
X134719951Y-65307270D01*
X134623389Y-65527410D01*
X134564379Y-65760440D01*
X134544529Y-65999994D01*
X123500500Y-65999994D01*
X123500500Y-63899500D01*
X123520185Y-63832461D01*
X123572989Y-63786706D01*
X123624500Y-63775500D01*
X126769750Y-63775500D01*
X126769751Y-63775499D01*
X126784568Y-63772552D01*
X126828229Y-63763868D01*
X126828229Y-63763867D01*
X126828231Y-63763867D01*
X126894552Y-63719552D01*
X126938867Y-63653231D01*
X126938867Y-63653229D01*
X126938868Y-63653229D01*
X126950499Y-63594752D01*
X126950500Y-63594750D01*
X126950500Y-61805249D01*
X126950499Y-61805247D01*
X126938868Y-61746770D01*
X126938867Y-61746769D01*
X126892982Y-61678098D01*
X126872104Y-61611421D01*
X126880681Y-61580155D01*
X134238000Y-61580155D01*
X134238000Y-62140000D01*
X135211184Y-62140000D01*
X135195124Y-62156060D01*
X135144964Y-62242939D01*
X135119000Y-62339840D01*
X135119000Y-62440160D01*
X135144964Y-62537061D01*
X135195124Y-62623940D01*
X135211184Y-62640000D01*
X134238000Y-62640000D01*
X134238000Y-63199844D01*
X134244401Y-63259372D01*
X134244403Y-63259379D01*
X134294645Y-63394086D01*
X134294649Y-63394093D01*
X134380809Y-63509187D01*
X134380812Y-63509190D01*
X134495906Y-63595350D01*
X134495913Y-63595354D01*
X134630620Y-63645596D01*
X134630627Y-63645598D01*
X134690155Y-63651999D01*
X134690172Y-63652000D01*
X135250000Y-63652000D01*
X135250000Y-62678816D01*
X135266060Y-62694876D01*
X135352939Y-62745036D01*
X135449840Y-62771000D01*
X135550160Y-62771000D01*
X135647061Y-62745036D01*
X135733940Y-62694876D01*
X135750000Y-62678816D01*
X135750000Y-63652000D01*
X136309828Y-63652000D01*
X136309844Y-63651999D01*
X136369372Y-63645598D01*
X136369379Y-63645596D01*
X136504086Y-63595354D01*
X136504093Y-63595350D01*
X136619187Y-63509190D01*
X136619190Y-63509187D01*
X136705350Y-63394093D01*
X136705354Y-63394086D01*
X136755596Y-63259379D01*
X136755598Y-63259372D01*
X136761999Y-63199844D01*
X136762000Y-63199827D01*
X136762000Y-62640000D01*
X135788816Y-62640000D01*
X135804876Y-62623940D01*
X135855036Y-62537061D01*
X135881000Y-62440160D01*
X135881000Y-62339840D01*
X135855036Y-62242939D01*
X135804876Y-62156060D01*
X135788816Y-62140000D01*
X136762000Y-62140000D01*
X136762000Y-61580172D01*
X136761999Y-61580155D01*
X136755598Y-61520627D01*
X136755596Y-61520620D01*
X136705354Y-61385913D01*
X136705350Y-61385906D01*
X136619190Y-61270812D01*
X136619187Y-61270809D01*
X136504093Y-61184649D01*
X136504086Y-61184645D01*
X136369379Y-61134403D01*
X136369372Y-61134401D01*
X136309844Y-61128000D01*
X135750000Y-61128000D01*
X135750000Y-62101184D01*
X135733940Y-62085124D01*
X135647061Y-62034964D01*
X135550160Y-62009000D01*
X135449840Y-62009000D01*
X135352939Y-62034964D01*
X135266060Y-62085124D01*
X135250000Y-62101184D01*
X135250000Y-61128000D01*
X134690155Y-61128000D01*
X134630627Y-61134401D01*
X134630620Y-61134403D01*
X134495913Y-61184645D01*
X134495906Y-61184649D01*
X134380812Y-61270809D01*
X134380809Y-61270812D01*
X134294649Y-61385906D01*
X134294645Y-61385913D01*
X134244403Y-61520620D01*
X134244401Y-61520627D01*
X134238000Y-61580155D01*
X126880681Y-61580155D01*
X126890588Y-61544041D01*
X126942567Y-61497350D01*
X126952752Y-61493025D01*
X126992084Y-61478355D01*
X126992093Y-61478350D01*
X127107187Y-61392190D01*
X127107190Y-61392187D01*
X127193350Y-61277093D01*
X127193354Y-61277086D01*
X127243596Y-61142379D01*
X127243598Y-61142372D01*
X127249999Y-61082844D01*
X127250000Y-61082827D01*
X127250000Y-60410000D01*
X124874000Y-60410000D01*
X124806961Y-60390315D01*
X124761206Y-60337511D01*
X124750000Y-60286000D01*
X124750000Y-60034000D01*
X124769685Y-59966961D01*
X124822489Y-59921206D01*
X124874000Y-59910000D01*
X127250000Y-59910000D01*
X127250000Y-59850000D01*
X134532843Y-59850000D01*
X134551426Y-60038681D01*
X134551427Y-60038683D01*
X134606463Y-60220115D01*
X134606464Y-60220118D01*
X134606465Y-60220119D01*
X134606466Y-60220122D01*
X134695834Y-60387318D01*
X134695838Y-60387325D01*
X134816116Y-60533883D01*
X134962674Y-60654161D01*
X134962681Y-60654165D01*
X135129877Y-60743533D01*
X135129878Y-60743533D01*
X135129885Y-60743537D01*
X135311317Y-60798573D01*
X135311316Y-60798573D01*
X135328233Y-60800239D01*
X135500000Y-60817157D01*
X135688683Y-60798573D01*
X135870115Y-60743537D01*
X136037324Y-60654162D01*
X136183883Y-60533883D01*
X136304162Y-60387324D01*
X136393537Y-60220115D01*
X136448573Y-60038683D01*
X136467157Y-59850000D01*
X136448573Y-59661317D01*
X136393537Y-59479885D01*
X136304162Y-59312676D01*
X136304161Y-59312674D01*
X136183883Y-59166116D01*
X136037325Y-59045838D01*
X136037318Y-59045834D01*
X135870122Y-58956466D01*
X135870119Y-58956465D01*
X135870118Y-58956464D01*
X135870115Y-58956463D01*
X135688683Y-58901427D01*
X135688681Y-58901426D01*
X135688683Y-58901426D01*
X135500000Y-58882843D01*
X135311318Y-58901426D01*
X135224346Y-58927809D01*
X135129885Y-58956463D01*
X135129882Y-58956464D01*
X135129880Y-58956465D01*
X135129877Y-58956466D01*
X134962681Y-59045834D01*
X134962674Y-59045838D01*
X134816116Y-59166116D01*
X134695838Y-59312674D01*
X134695834Y-59312681D01*
X134606466Y-59479877D01*
X134606465Y-59479880D01*
X134551426Y-59661318D01*
X134532843Y-59850000D01*
X127250000Y-59850000D01*
X127250000Y-59237172D01*
X127249999Y-59237155D01*
X127243598Y-59177627D01*
X127243596Y-59177620D01*
X127193354Y-59042913D01*
X127193350Y-59042906D01*
X127107190Y-58927812D01*
X127107187Y-58927809D01*
X126992093Y-58841649D01*
X126992087Y-58841646D01*
X126952750Y-58826974D01*
X126896817Y-58785102D01*
X126872400Y-58719638D01*
X126887252Y-58651365D01*
X126892983Y-58641900D01*
X126938867Y-58573231D01*
X126938868Y-58573229D01*
X126950499Y-58514752D01*
X126950500Y-58514750D01*
X126950500Y-57310000D01*
X134532843Y-57310000D01*
X134551426Y-57498681D01*
X134551427Y-57498683D01*
X134606463Y-57680115D01*
X134606464Y-57680118D01*
X134606465Y-57680119D01*
X134606466Y-57680122D01*
X134695834Y-57847318D01*
X134695838Y-57847325D01*
X134816116Y-57993883D01*
X134962674Y-58114161D01*
X134962681Y-58114165D01*
X135129877Y-58203533D01*
X135129878Y-58203533D01*
X135129885Y-58203537D01*
X135311317Y-58258573D01*
X135311316Y-58258573D01*
X135328233Y-58260239D01*
X135500000Y-58277157D01*
X135688683Y-58258573D01*
X135870115Y-58203537D01*
X136037324Y-58114162D01*
X136183883Y-57993883D01*
X136304162Y-57847324D01*
X136393537Y-57680115D01*
X136448573Y-57498683D01*
X136467157Y-57310000D01*
X136448573Y-57121317D01*
X136393537Y-56939885D01*
X136304162Y-56772676D01*
X136304161Y-56772674D01*
X136183883Y-56626116D01*
X136037325Y-56505838D01*
X136037318Y-56505834D01*
X135870122Y-56416466D01*
X135870119Y-56416465D01*
X135870118Y-56416464D01*
X135870115Y-56416463D01*
X135688683Y-56361427D01*
X135688681Y-56361426D01*
X135688683Y-56361426D01*
X135500000Y-56342843D01*
X135311318Y-56361426D01*
X135204194Y-56393921D01*
X135129885Y-56416463D01*
X135129882Y-56416464D01*
X135129880Y-56416465D01*
X135129877Y-56416466D01*
X134962681Y-56505834D01*
X134962674Y-56505838D01*
X134816116Y-56626116D01*
X134695838Y-56772674D01*
X134695834Y-56772681D01*
X134606466Y-56939877D01*
X134606465Y-56939880D01*
X134551426Y-57121318D01*
X134532843Y-57310000D01*
X126950500Y-57310000D01*
X126950500Y-56725249D01*
X126950499Y-56725247D01*
X126938868Y-56666770D01*
X126938867Y-56666769D01*
X126894552Y-56600447D01*
X126828230Y-56556132D01*
X126828229Y-56556131D01*
X126769752Y-56544500D01*
X126769748Y-56544500D01*
X123624500Y-56544500D01*
X123557461Y-56524815D01*
X123511706Y-56472011D01*
X123500500Y-56420500D01*
X123500500Y-56279500D01*
X123520185Y-56212461D01*
X123572989Y-56166706D01*
X123624500Y-56155500D01*
X126769750Y-56155500D01*
X126769751Y-56155499D01*
X126784568Y-56152552D01*
X126828229Y-56143868D01*
X126828229Y-56143867D01*
X126828231Y-56143867D01*
X126894552Y-56099552D01*
X126938867Y-56033231D01*
X126938867Y-56033229D01*
X126938868Y-56033229D01*
X126950499Y-55974752D01*
X126950500Y-55974750D01*
X126950500Y-54770000D01*
X134532843Y-54770000D01*
X134551426Y-54958681D01*
X134551427Y-54958683D01*
X134606463Y-55140115D01*
X134606464Y-55140118D01*
X134606465Y-55140119D01*
X134606466Y-55140122D01*
X134695834Y-55307318D01*
X134695838Y-55307325D01*
X134816116Y-55453883D01*
X134962674Y-55574161D01*
X134962681Y-55574165D01*
X135129877Y-55663533D01*
X135129878Y-55663533D01*
X135129885Y-55663537D01*
X135311317Y-55718573D01*
X135311316Y-55718573D01*
X135328233Y-55720239D01*
X135500000Y-55737157D01*
X135688683Y-55718573D01*
X135870115Y-55663537D01*
X136037324Y-55574162D01*
X136183883Y-55453883D01*
X136304162Y-55307324D01*
X136393537Y-55140115D01*
X136448573Y-54958683D01*
X136467157Y-54770000D01*
X136448573Y-54581317D01*
X136393537Y-54399885D01*
X136304162Y-54232676D01*
X136304161Y-54232674D01*
X136183883Y-54086116D01*
X136037325Y-53965838D01*
X136037318Y-53965834D01*
X135870122Y-53876466D01*
X135870119Y-53876465D01*
X135870118Y-53876464D01*
X135870115Y-53876463D01*
X135688683Y-53821427D01*
X135688681Y-53821426D01*
X135688683Y-53821426D01*
X135500000Y-53802843D01*
X135311318Y-53821426D01*
X135204194Y-53853921D01*
X135129885Y-53876463D01*
X135129882Y-53876464D01*
X135129880Y-53876465D01*
X135129877Y-53876466D01*
X134962681Y-53965834D01*
X134962674Y-53965838D01*
X134816116Y-54086116D01*
X134695838Y-54232674D01*
X134695834Y-54232681D01*
X134606466Y-54399877D01*
X134606465Y-54399880D01*
X134551426Y-54581318D01*
X134532843Y-54770000D01*
X126950500Y-54770000D01*
X126950500Y-54185249D01*
X126950499Y-54185247D01*
X126938868Y-54126770D01*
X126938867Y-54126769D01*
X126894552Y-54060447D01*
X126828230Y-54016132D01*
X126828229Y-54016131D01*
X126769752Y-54004500D01*
X126769748Y-54004500D01*
X123624500Y-54004500D01*
X123557461Y-53984815D01*
X123511706Y-53932011D01*
X123500500Y-53880500D01*
X123500500Y-53696206D01*
X123520185Y-53629167D01*
X123572989Y-53583412D01*
X123624500Y-53572206D01*
X126769750Y-53572206D01*
X126769751Y-53572205D01*
X126784568Y-53569258D01*
X126828229Y-53560574D01*
X126828229Y-53560573D01*
X126828231Y-53560573D01*
X126894552Y-53516258D01*
X126938867Y-53449937D01*
X126938867Y-53449935D01*
X126938868Y-53449935D01*
X126950499Y-53391458D01*
X126950500Y-53391456D01*
X126950500Y-52921206D01*
X126970185Y-52854167D01*
X127022989Y-52808412D01*
X127074500Y-52797206D01*
X131230959Y-52797206D01*
X131230961Y-52797206D01*
X131307388Y-52776727D01*
X131375910Y-52737166D01*
X131431859Y-52681217D01*
X131883076Y-52230000D01*
X134532843Y-52230000D01*
X134551426Y-52418681D01*
X134551427Y-52418683D01*
X134606463Y-52600115D01*
X134606464Y-52600118D01*
X134606465Y-52600119D01*
X134606466Y-52600122D01*
X134695834Y-52767318D01*
X134695838Y-52767325D01*
X134816116Y-52913883D01*
X134962674Y-53034161D01*
X134962681Y-53034165D01*
X135129877Y-53123533D01*
X135129878Y-53123533D01*
X135129885Y-53123537D01*
X135311317Y-53178573D01*
X135311316Y-53178573D01*
X135328233Y-53180239D01*
X135500000Y-53197157D01*
X135688683Y-53178573D01*
X135870115Y-53123537D01*
X136037324Y-53034162D01*
X136183883Y-52913883D01*
X136304162Y-52767324D01*
X136393537Y-52600115D01*
X136448573Y-52418683D01*
X136467157Y-52230000D01*
X136448573Y-52041317D01*
X136393537Y-51859885D01*
X136304162Y-51692676D01*
X136304161Y-51692674D01*
X136183883Y-51546116D01*
X136037325Y-51425838D01*
X136037318Y-51425834D01*
X135870122Y-51336466D01*
X135870119Y-51336465D01*
X135870118Y-51336464D01*
X135870115Y-51336463D01*
X135688683Y-51281427D01*
X135688681Y-51281426D01*
X135688683Y-51281426D01*
X135500000Y-51262843D01*
X135311318Y-51281426D01*
X135204194Y-51313921D01*
X135129885Y-51336463D01*
X135129882Y-51336464D01*
X135129880Y-51336465D01*
X135129877Y-51336466D01*
X134962681Y-51425834D01*
X134962674Y-51425838D01*
X134816116Y-51546116D01*
X134695838Y-51692674D01*
X134695834Y-51692681D01*
X134606466Y-51859877D01*
X134606465Y-51859880D01*
X134551426Y-52041318D01*
X134532843Y-52230000D01*
X131883076Y-52230000D01*
X134337615Y-49775459D01*
X134398938Y-49741975D01*
X134468630Y-49746959D01*
X134524563Y-49788831D01*
X134548699Y-49850987D01*
X134551426Y-49878681D01*
X134551427Y-49878683D01*
X134606463Y-50060115D01*
X134606464Y-50060118D01*
X134606465Y-50060119D01*
X134606466Y-50060122D01*
X134695834Y-50227318D01*
X134695838Y-50227325D01*
X134816116Y-50373883D01*
X134962674Y-50494161D01*
X134962681Y-50494165D01*
X135129877Y-50583533D01*
X135129878Y-50583533D01*
X135129885Y-50583537D01*
X135311317Y-50638573D01*
X135311316Y-50638573D01*
X135328233Y-50640239D01*
X135500000Y-50657157D01*
X135688683Y-50638573D01*
X135870115Y-50583537D01*
X136037324Y-50494162D01*
X136183883Y-50373883D01*
X136304162Y-50227324D01*
X136393537Y-50060115D01*
X136448573Y-49878683D01*
X136467157Y-49690000D01*
X136448573Y-49501317D01*
X136393537Y-49319885D01*
X136304162Y-49152676D01*
X136300145Y-49147782D01*
X136286508Y-49131164D01*
X136259196Y-49066854D01*
X136270987Y-48997987D01*
X136318140Y-48946427D01*
X136382362Y-48928500D01*
X136411560Y-48928500D01*
X136411562Y-48928500D01*
X136487989Y-48908021D01*
X136556511Y-48868460D01*
X136612460Y-48812511D01*
X136802460Y-48622511D01*
X136842022Y-48553988D01*
X136862500Y-48477562D01*
X136862500Y-48398438D01*
X136862500Y-45632438D01*
X136842021Y-45556011D01*
X136828838Y-45533177D01*
X136802464Y-45487495D01*
X136802458Y-45487487D01*
X136423177Y-45108206D01*
X136389692Y-45046883D01*
X136392197Y-44984530D01*
X136393535Y-44980118D01*
X136393537Y-44980115D01*
X136448573Y-44798683D01*
X136467157Y-44610000D01*
X136448573Y-44421317D01*
X136393537Y-44239885D01*
X136304162Y-44072676D01*
X136304161Y-44072674D01*
X136183883Y-43926116D01*
X136037325Y-43805838D01*
X136037318Y-43805834D01*
X135870122Y-43716466D01*
X135870119Y-43716465D01*
X135870118Y-43716464D01*
X135870115Y-43716463D01*
X135688683Y-43661427D01*
X135688681Y-43661426D01*
X135688683Y-43661426D01*
X135500000Y-43642843D01*
X135311318Y-43661426D01*
X135204194Y-43693921D01*
X135129885Y-43716463D01*
X135129882Y-43716464D01*
X135129880Y-43716465D01*
X135129877Y-43716466D01*
X134962681Y-43805834D01*
X134962674Y-43805838D01*
X134816116Y-43926116D01*
X134695838Y-44072674D01*
X134695834Y-44072681D01*
X134606466Y-44239877D01*
X134606465Y-44239880D01*
X134551426Y-44421318D01*
X134532843Y-44610000D01*
X134551426Y-44798681D01*
X134551427Y-44798683D01*
X134606463Y-44980115D01*
X134606464Y-44980118D01*
X134606465Y-44980119D01*
X134606466Y-44980122D01*
X134695834Y-45147318D01*
X134695838Y-45147325D01*
X134816116Y-45293883D01*
X134962674Y-45414161D01*
X134962681Y-45414165D01*
X135129877Y-45503533D01*
X135129878Y-45503533D01*
X135129885Y-45503537D01*
X135311317Y-45558573D01*
X135311316Y-45558573D01*
X135328233Y-45560239D01*
X135500000Y-45577157D01*
X135688683Y-45558573D01*
X135870115Y-45503537D01*
X135870118Y-45503535D01*
X135874530Y-45502197D01*
X135944397Y-45501574D01*
X135998206Y-45533177D01*
X136225181Y-45760152D01*
X136258666Y-45821475D01*
X136261500Y-45847833D01*
X136261500Y-46267638D01*
X136241815Y-46334677D01*
X136189011Y-46380432D01*
X136119853Y-46390376D01*
X136058836Y-46363492D01*
X136037324Y-46345838D01*
X136037318Y-46345834D01*
X135870122Y-46256466D01*
X135870119Y-46256465D01*
X135870118Y-46256464D01*
X135870115Y-46256463D01*
X135688683Y-46201427D01*
X135688681Y-46201426D01*
X135688683Y-46201426D01*
X135500000Y-46182843D01*
X135311318Y-46201426D01*
X135204194Y-46233921D01*
X135129885Y-46256463D01*
X135129882Y-46256464D01*
X135129880Y-46256465D01*
X135129877Y-46256466D01*
X134962681Y-46345834D01*
X134962674Y-46345838D01*
X134816116Y-46466116D01*
X134695838Y-46612674D01*
X134695834Y-46612681D01*
X134606466Y-46779877D01*
X134606465Y-46779880D01*
X134551426Y-46961318D01*
X134532843Y-47150000D01*
X134551426Y-47338681D01*
X134607802Y-47524529D01*
X134608425Y-47594396D01*
X134576822Y-47648205D01*
X132561848Y-49663181D01*
X132500525Y-49696666D01*
X132474167Y-49699500D01*
X127074500Y-49699500D01*
X127007461Y-49679815D01*
X126961706Y-49627011D01*
X126950500Y-49575500D01*
X126950500Y-49105249D01*
X126950499Y-49105247D01*
X126938868Y-49046770D01*
X126938867Y-49046769D01*
X126894552Y-48980447D01*
X126828230Y-48936132D01*
X126828229Y-48936131D01*
X126769752Y-48924500D01*
X126769748Y-48924500D01*
X123624500Y-48924500D01*
X123557461Y-48904815D01*
X123511706Y-48852011D01*
X123500500Y-48800500D01*
X123500500Y-41999998D01*
X125044518Y-41999998D01*
X125044518Y-42000001D01*
X125064422Y-42278299D01*
X125101883Y-42450500D01*
X125123729Y-42550923D01*
X125184266Y-42713230D01*
X125221231Y-42812338D01*
X125221233Y-42812342D01*
X125354940Y-43057207D01*
X125354945Y-43057215D01*
X125522138Y-43280560D01*
X125522154Y-43280578D01*
X125719421Y-43477845D01*
X125719439Y-43477861D01*
X125942784Y-43645054D01*
X125942792Y-43645059D01*
X126187657Y-43778766D01*
X126187661Y-43778768D01*
X126187663Y-43778769D01*
X126449077Y-43876271D01*
X126585391Y-43905924D01*
X126721700Y-43935577D01*
X126721702Y-43935577D01*
X126721706Y-43935578D01*
X126969014Y-43953265D01*
X126999999Y-43955482D01*
X127000000Y-43955482D01*
X127000001Y-43955482D01*
X127027881Y-43953487D01*
X127278294Y-43935578D01*
X127550923Y-43876271D01*
X127812337Y-43778769D01*
X128057213Y-43645056D01*
X128280568Y-43477855D01*
X128477855Y-43280568D01*
X128645056Y-43057213D01*
X128778769Y-42812337D01*
X128876271Y-42550923D01*
X128935578Y-42278294D01*
X128955482Y-42000000D01*
X128935578Y-41721706D01*
X128929274Y-41692729D01*
X128881386Y-41472591D01*
X128876271Y-41449077D01*
X128778769Y-41187663D01*
X128676294Y-40999994D01*
X134544529Y-40999994D01*
X134544529Y-41000005D01*
X134564379Y-41239559D01*
X134623389Y-41472589D01*
X134719951Y-41692729D01*
X134738879Y-41721700D01*
X134851429Y-41893969D01*
X135014236Y-42070825D01*
X135014239Y-42070827D01*
X135014242Y-42070830D01*
X135203924Y-42218466D01*
X135203930Y-42218470D01*
X135203933Y-42218472D01*
X135415344Y-42332882D01*
X135415347Y-42332883D01*
X135642699Y-42410933D01*
X135642701Y-42410933D01*
X135642703Y-42410934D01*
X135879808Y-42450500D01*
X135879809Y-42450500D01*
X136120191Y-42450500D01*
X136120192Y-42450500D01*
X136357297Y-42410934D01*
X136584656Y-42332882D01*
X136796067Y-42218472D01*
X136985764Y-42070825D01*
X137148571Y-41893969D01*
X137280049Y-41692728D01*
X137376610Y-41472591D01*
X137435620Y-41239563D01*
X137455471Y-41000000D01*
X137435620Y-40760437D01*
X137376610Y-40527409D01*
X137280049Y-40307272D01*
X137148571Y-40106031D01*
X136985764Y-39929175D01*
X136985759Y-39929171D01*
X136985757Y-39929169D01*
X136796075Y-39781533D01*
X136796069Y-39781529D01*
X136584657Y-39667118D01*
X136584652Y-39667116D01*
X136357300Y-39589066D01*
X136179468Y-39559391D01*
X136120192Y-39549500D01*
X135879808Y-39549500D01*
X135832387Y-39557413D01*
X135642699Y-39589066D01*
X135415347Y-39667116D01*
X135415342Y-39667118D01*
X135203930Y-39781529D01*
X135203924Y-39781533D01*
X135014242Y-39929169D01*
X135014239Y-39929172D01*
X134851430Y-40106029D01*
X134851427Y-40106033D01*
X134719951Y-40307270D01*
X134623389Y-40527410D01*
X134564379Y-40760440D01*
X134544529Y-40999994D01*
X128676294Y-40999994D01*
X128645056Y-40942787D01*
X128645054Y-40942784D01*
X128477861Y-40719439D01*
X128477845Y-40719421D01*
X128280578Y-40522154D01*
X128280560Y-40522138D01*
X128057215Y-40354945D01*
X128057207Y-40354940D01*
X127812342Y-40221233D01*
X127812338Y-40221231D01*
X127713230Y-40184266D01*
X127550923Y-40123729D01*
X127550919Y-40123728D01*
X127550916Y-40123727D01*
X127278299Y-40064422D01*
X127000001Y-40044518D01*
X126999999Y-40044518D01*
X126721700Y-40064422D01*
X126449083Y-40123727D01*
X126449078Y-40123728D01*
X126449077Y-40123729D01*
X126385875Y-40147301D01*
X126187661Y-40221231D01*
X126187657Y-40221233D01*
X125942792Y-40354940D01*
X125942784Y-40354945D01*
X125719439Y-40522138D01*
X125719421Y-40522154D01*
X125522154Y-40719421D01*
X125522138Y-40719439D01*
X125354945Y-40942784D01*
X125354940Y-40942792D01*
X125221233Y-41187657D01*
X125221231Y-41187661D01*
X125123727Y-41449083D01*
X125064422Y-41721700D01*
X125044518Y-41999998D01*
X123500500Y-41999998D01*
X123500500Y-36624500D01*
X123520185Y-36557461D01*
X123572989Y-36511706D01*
X123624500Y-36500500D01*
X139375500Y-36500500D01*
X139442539Y-36520185D01*
G37*
%TD.AperFunction*%
%TD*%
M02*
