%TF.GenerationSoftware,KiCad,Pcbnew,8.0.4*%
%TF.CreationDate,2024-10-01T01:31:56-04:00*%
%TF.ProjectId,st7735_and_encoder,73743737-3335-45f6-916e-645f656e636f,rev?*%
%TF.SameCoordinates,Original*%
%TF.FileFunction,Legend,Top*%
%TF.FilePolarity,Positive*%
%FSLAX46Y46*%
G04 Gerber Fmt 4.6, Leading zero omitted, Abs format (unit mm)*
G04 Created by KiCad (PCBNEW 8.0.4) date 2024-10-01 01:31:56*
%MOMM*%
%LPD*%
G01*
G04 APERTURE LIST*
%ADD10C,0.100000*%
G04 APERTURE END LIST*
D10*
X122002580Y-53785714D02*
X123002580Y-53785714D01*
X123002580Y-53785714D02*
X123002580Y-54166666D01*
X123002580Y-54166666D02*
X122954961Y-54261904D01*
X122954961Y-54261904D02*
X122907342Y-54309523D01*
X122907342Y-54309523D02*
X122812104Y-54357142D01*
X122812104Y-54357142D02*
X122669247Y-54357142D01*
X122669247Y-54357142D02*
X122574009Y-54309523D01*
X122574009Y-54309523D02*
X122526390Y-54261904D01*
X122526390Y-54261904D02*
X122478771Y-54166666D01*
X122478771Y-54166666D02*
X122478771Y-53785714D01*
X122002580Y-54785714D02*
X123002580Y-54785714D01*
X123002580Y-54785714D02*
X122288295Y-55119047D01*
X122288295Y-55119047D02*
X123002580Y-55452380D01*
X123002580Y-55452380D02*
X122002580Y-55452380D01*
X123002580Y-56119047D02*
X123002580Y-56309523D01*
X123002580Y-56309523D02*
X122954961Y-56404761D01*
X122954961Y-56404761D02*
X122859723Y-56499999D01*
X122859723Y-56499999D02*
X122669247Y-56547618D01*
X122669247Y-56547618D02*
X122335914Y-56547618D01*
X122335914Y-56547618D02*
X122145438Y-56499999D01*
X122145438Y-56499999D02*
X122050200Y-56404761D01*
X122050200Y-56404761D02*
X122002580Y-56309523D01*
X122002580Y-56309523D02*
X122002580Y-56119047D01*
X122002580Y-56119047D02*
X122050200Y-56023809D01*
X122050200Y-56023809D02*
X122145438Y-55928571D01*
X122145438Y-55928571D02*
X122335914Y-55880952D01*
X122335914Y-55880952D02*
X122669247Y-55880952D01*
X122669247Y-55880952D02*
X122859723Y-55928571D01*
X122859723Y-55928571D02*
X122954961Y-56023809D01*
X122954961Y-56023809D02*
X123002580Y-56119047D01*
X122002580Y-56976190D02*
X123002580Y-56976190D01*
X123002580Y-56976190D02*
X123002580Y-57214285D01*
X123002580Y-57214285D02*
X122954961Y-57357142D01*
X122954961Y-57357142D02*
X122859723Y-57452380D01*
X122859723Y-57452380D02*
X122764485Y-57499999D01*
X122764485Y-57499999D02*
X122574009Y-57547618D01*
X122574009Y-57547618D02*
X122431152Y-57547618D01*
X122431152Y-57547618D02*
X122240676Y-57499999D01*
X122240676Y-57499999D02*
X122145438Y-57452380D01*
X122145438Y-57452380D02*
X122050200Y-57357142D01*
X122050200Y-57357142D02*
X122002580Y-57214285D01*
X122002580Y-57214285D02*
X122002580Y-56976190D01*
X121907342Y-57738095D02*
X121907342Y-58499999D01*
X122526390Y-59071428D02*
X122478771Y-59214285D01*
X122478771Y-59214285D02*
X122431152Y-59261904D01*
X122431152Y-59261904D02*
X122335914Y-59309523D01*
X122335914Y-59309523D02*
X122193057Y-59309523D01*
X122193057Y-59309523D02*
X122097819Y-59261904D01*
X122097819Y-59261904D02*
X122050200Y-59214285D01*
X122050200Y-59214285D02*
X122002580Y-59119047D01*
X122002580Y-59119047D02*
X122002580Y-58738095D01*
X122002580Y-58738095D02*
X123002580Y-58738095D01*
X123002580Y-58738095D02*
X123002580Y-59071428D01*
X123002580Y-59071428D02*
X122954961Y-59166666D01*
X122954961Y-59166666D02*
X122907342Y-59214285D01*
X122907342Y-59214285D02*
X122812104Y-59261904D01*
X122812104Y-59261904D02*
X122716866Y-59261904D01*
X122716866Y-59261904D02*
X122621628Y-59214285D01*
X122621628Y-59214285D02*
X122574009Y-59166666D01*
X122574009Y-59166666D02*
X122526390Y-59071428D01*
X122526390Y-59071428D02*
X122526390Y-58738095D01*
X122002580Y-60261904D02*
X122002580Y-59690476D01*
X122002580Y-59976190D02*
X123002580Y-59976190D01*
X123002580Y-59976190D02*
X122859723Y-59880952D01*
X122859723Y-59880952D02*
X122764485Y-59785714D01*
X122764485Y-59785714D02*
X122716866Y-59690476D01*
X137497419Y-56134761D02*
X138306942Y-56134761D01*
X138306942Y-56134761D02*
X138402180Y-56087142D01*
X138402180Y-56087142D02*
X138449800Y-56039523D01*
X138449800Y-56039523D02*
X138497419Y-55944285D01*
X138497419Y-55944285D02*
X138497419Y-55753809D01*
X138497419Y-55753809D02*
X138449800Y-55658571D01*
X138449800Y-55658571D02*
X138402180Y-55610952D01*
X138402180Y-55610952D02*
X138306942Y-55563333D01*
X138306942Y-55563333D02*
X137497419Y-55563333D01*
X138497419Y-54563333D02*
X138497419Y-55134761D01*
X138497419Y-54849047D02*
X137497419Y-54849047D01*
X137497419Y-54849047D02*
X137640276Y-54944285D01*
X137640276Y-54944285D02*
X137735514Y-55039523D01*
X137735514Y-55039523D02*
X137783133Y-55134761D01*
X138592657Y-54372857D02*
X138592657Y-53610952D01*
X138449800Y-53420475D02*
X138497419Y-53277618D01*
X138497419Y-53277618D02*
X138497419Y-53039523D01*
X138497419Y-53039523D02*
X138449800Y-52944285D01*
X138449800Y-52944285D02*
X138402180Y-52896666D01*
X138402180Y-52896666D02*
X138306942Y-52849047D01*
X138306942Y-52849047D02*
X138211704Y-52849047D01*
X138211704Y-52849047D02*
X138116466Y-52896666D01*
X138116466Y-52896666D02*
X138068847Y-52944285D01*
X138068847Y-52944285D02*
X138021228Y-53039523D01*
X138021228Y-53039523D02*
X137973609Y-53229999D01*
X137973609Y-53229999D02*
X137925990Y-53325237D01*
X137925990Y-53325237D02*
X137878371Y-53372856D01*
X137878371Y-53372856D02*
X137783133Y-53420475D01*
X137783133Y-53420475D02*
X137687895Y-53420475D01*
X137687895Y-53420475D02*
X137592657Y-53372856D01*
X137592657Y-53372856D02*
X137545038Y-53325237D01*
X137545038Y-53325237D02*
X137497419Y-53229999D01*
X137497419Y-53229999D02*
X137497419Y-52991904D01*
X137497419Y-52991904D02*
X137545038Y-52849047D01*
X137497419Y-52563332D02*
X137497419Y-51991904D01*
X138497419Y-52277618D02*
X137497419Y-52277618D01*
X137497419Y-51753808D02*
X137497419Y-51087142D01*
X137497419Y-51087142D02*
X138497419Y-51515713D01*
X137497419Y-50801427D02*
X137497419Y-50134761D01*
X137497419Y-50134761D02*
X138497419Y-50563332D01*
X137497419Y-49849046D02*
X137497419Y-49229999D01*
X137497419Y-49229999D02*
X137878371Y-49563332D01*
X137878371Y-49563332D02*
X137878371Y-49420475D01*
X137878371Y-49420475D02*
X137925990Y-49325237D01*
X137925990Y-49325237D02*
X137973609Y-49277618D01*
X137973609Y-49277618D02*
X138068847Y-49229999D01*
X138068847Y-49229999D02*
X138306942Y-49229999D01*
X138306942Y-49229999D02*
X138402180Y-49277618D01*
X138402180Y-49277618D02*
X138449800Y-49325237D01*
X138449800Y-49325237D02*
X138497419Y-49420475D01*
X138497419Y-49420475D02*
X138497419Y-49706189D01*
X138497419Y-49706189D02*
X138449800Y-49801427D01*
X138449800Y-49801427D02*
X138402180Y-49849046D01*
X137497419Y-48325237D02*
X137497419Y-48801427D01*
X137497419Y-48801427D02*
X137973609Y-48849046D01*
X137973609Y-48849046D02*
X137925990Y-48801427D01*
X137925990Y-48801427D02*
X137878371Y-48706189D01*
X137878371Y-48706189D02*
X137878371Y-48468094D01*
X137878371Y-48468094D02*
X137925990Y-48372856D01*
X137925990Y-48372856D02*
X137973609Y-48325237D01*
X137973609Y-48325237D02*
X138068847Y-48277618D01*
X138068847Y-48277618D02*
X138306942Y-48277618D01*
X138306942Y-48277618D02*
X138402180Y-48325237D01*
X138402180Y-48325237D02*
X138449800Y-48372856D01*
X138449800Y-48372856D02*
X138497419Y-48468094D01*
X138497419Y-48468094D02*
X138497419Y-48706189D01*
X138497419Y-48706189D02*
X138449800Y-48801427D01*
X138449800Y-48801427D02*
X138402180Y-48849046D01*
%TO.C,U1_ST7735*%
X132960000Y-70010000D02*
X181220000Y-70010000D01*
X181220000Y-36990000D01*
X132960000Y-36990000D01*
X132960000Y-70010000D01*
%TD*%
M02*
